<svg xmlns="http://www.w3.org/2000/svg" width="152" height="122" viewBox="0 0 152 122" fill="none">
  <g filter="url(#filter0_d_588_285)">
    <path d="M6 36.3714C6.03834 25.1704 12.3841 15.2456 22.6984 11.1119C32.2458 7.283 41.3714 8.73075 49.5001 14.8837C53.5453 17.9506 57.0537 21.7034 60.773 25.1894C61.6357 25.9895 61.559 26.6372 60.7155 27.4753C59.7761 28.3897 58.8367 29.285 57.8973 30.1803C56.9387 31.0757 56.2293 31.0757 55.2516 30.1422C52.5292 27.5515 49.9027 24.8656 47.0462 22.4082C41.0455 17.2649 34.1054 15.2456 26.4943 17.7983C19.1325 20.2556 14.9531 25.818 13.8028 33.3616C12.6333 40.9432 15.1448 47.2867 21.4522 51.8585C25.4591 54.7731 30.0986 55.4589 34.949 54.8493C40.4895 54.1445 44.899 51.3061 48.7333 47.4581C56.9195 39.2098 65.0674 30.9233 73.2536 22.6749C76.2252 19.6651 79.1201 16.541 82.6477 14.1598C88.2841 10.35 94.5148 8.57836 101.302 9.32128C107.571 10.0071 112.824 12.8835 117.137 17.3982C122.582 23.094 125.132 29.9327 124.748 37.762C124.614 40.3146 123.866 42.8672 123.234 45.3818C122.85 46.8486 121.547 47.0771 120.339 46.0866C119.399 45.3246 118.46 44.5817 117.482 43.8578C116.543 43.172 116.313 42.6767 116.677 41.5909C119.668 32.7139 114.664 22.2177 106.152 18.484C100.88 16.16 95.6268 16.3505 90.3546 18.5412C86.6162 20.1032 83.6446 22.6749 80.8839 25.5133C74.2314 32.352 67.6172 39.2479 60.9072 46.0485C57.4947 49.5155 54.063 53.0015 50.3629 56.1446C44.2663 61.3261 37.0578 63.3263 29.0633 62.469C16.506 61.0594 8.26224 51.4776 6.4026 41.0194C6.1342 39.4955 6.1342 37.9334 6 36.3714Z" fill="white"/>
  </g>
  <g filter="url(#filter1_d_588_285)">
    <path fill-rule="evenodd" clip-rule="evenodd" d="M81.0213 46.756H88.5155H88.5186H96.0117H96.0128H103.509V54.2194H96.0128H96.0117H88.5186H88.5155H81.0213V46.756ZM81.0149 54.2197H73.5176V61.6827H66.0234V69.1461H73.5176H73.5207H81.0149V61.6831V61.6827V54.2197ZM21.0383 61.6827H13.541V69.1461H21.0383V61.6827ZM13.5422 69.1466H6.04492V76.6098V76.61V84.0732H13.541V91.5363H21.0383V84.0729H13.5422V76.61V76.6098V69.1466ZM21.039 91.5364H28.5363V98.9998H21.039V91.5364ZM36.0293 91.5364L28.539 91.5364V98.9998H36.0363L43.5266 98.9998V91.5364H36.0293ZM51.0293 84.0729H43.5331V91.5363L51.0293 91.5363L51.0304 91.5363L58.5266 91.5363V84.0732V84.0729V76.6098H51.0293V84.0729ZM43.5331 91.5364H51.0304V98.9998H43.5331V91.5364ZM66.0234 69.1466L58.5272 69.1466V76.6098V76.61V84.0732H66.0245V76.61L73.5176 76.61V84.0732H81.0149V76.6098H73.5207V69.1466H66.0234ZM88.5186 54.2197H81.0213V61.6831H88.5186V54.2197ZM81.0213 84.0729H88.5186V91.5363H81.0213V84.0729ZM88.5155 91.5364L96.0117 91.5364H103.509V98.9998L96.0128 98.9998H88.5155V91.5364ZM111.009 46.756H103.512V54.2194H111.009V46.756ZM103.512 91.5364H111.009V98.9998H103.512V91.5364ZM118.503 54.2197H111.006V61.6831H118.503V54.2197ZM111.006 84.0729H118.503V91.5363H111.006V84.0729ZM126.001 61.6827H118.504V69.1461H126.001V61.6827ZM118.504 69.1466H126.001V76.6098V76.61V84.0732H118.504V76.61V76.6098V69.1466Z" fill="#DE14FF"/>
  </g>
  <defs>
    <filter id="filter0_d_588_285" x="0.262702" y="0.133265" width="150.08" height="84.9552" filterUnits="userSpaceOnUse" color-interpolation-filters="sRGB">
      <feFlood flood-opacity="0" result="BackgroundImageFix"/>
      <feColorMatrix in="SourceAlpha" type="matrix" values="0 0 0 0 0 0 0 0 0 0 0 0 0 0 0 0 0 0 127 0" result="hardAlpha"/>
      <feOffset dx="9.90988" dy="6.78045"/>
      <feGaussianBlur stdDeviation="7.82359"/>
      <feComposite in2="hardAlpha" operator="out"/>
      <feColorMatrix type="matrix" values="0 0 0 0 0 0 0 0 0 0 0 0 0 0 0 0 0 0 0.25 0"/>
      <feBlend mode="normal" in2="BackgroundImageFix" result="effect1_dropShadow_588_285"/>
      <feBlend mode="normal" in="SourceGraphic" in2="effect1_dropShadow_588_285" result="shape"/>
    </filter>
    <filter id="filter1_d_588_285" x="0.307624" y="37.8892" width="151.25" height="83.5383" filterUnits="userSpaceOnUse" color-interpolation-filters="sRGB">
      <feFlood flood-opacity="0" result="BackgroundImageFix"/>
      <feColorMatrix in="SourceAlpha" type="matrix" values="0 0 0 0 0 0 0 0 0 0 0 0 0 0 0 0 0 0 127 0" result="hardAlpha"/>
      <feOffset dx="9.90988" dy="6.78045"/>
      <feGaussianBlur stdDeviation="7.82359"/>
      <feComposite in2="hardAlpha" operator="out"/>
      <feColorMatrix type="matrix" values="0 0 0 0 0 0 0 0 0 0 0 0 0 0 0 0 0 0 0.25 0"/>
      <feBlend mode="normal" in2="BackgroundImageFix" result="effect1_dropShadow_588_285"/>
      <feBlend mode="normal" in="SourceGraphic" in2="effect1_dropShadow_588_285" result="shape"/>
    </filter>
  </defs>
</svg>