<svg width="150" height="110" viewBox="0 0 150 110" fill="none" xmlns="http://www.w3.org/2000/svg">
<g clip-path="url(#clip0_616_8732)">
<path d="M146.32 57.8409C140.776 37.5482 130.862 18.5148 129.775 16.4586C129.655 16.1812 129.39 15.1444 129.198 14.3873C128.191 10.4322 127.526 8.16111 125.595 7.45654L106.471 0.483287C104.075 -0.398676 101.31 -0.0463912 99.2508 1.33027C97.0521 2.73941 94.5761 4.12107 93.7841 4.39341H84.0251C84.0351 6.16733 84.0451 7.37409 84.0551 7.78884C84.15 8.3435 84.1975 8.90316 84.1975 9.46532C84.1975 12.1337 83.1606 14.6422 81.2792 16.531C79.3979 18.4174 76.8969 19.4567 74.2335 19.4567C73.6664 19.4567 73.0842 19.4093 72.4996 19.3068C68.5445 18.6322 65.3239 15.5291 64.4919 11.5815C64.2096 10.2423 64.1921 8.90066 64.447 7.58896C64.4545 7.16422 64.4645 6.03241 64.4745 4.39091H56.8741C55.9671 4.12607 52.984 2.5945 50.7953 1.35526C48.6741 -0.0638801 45.9307 -0.391182 43.5347 0.480788L24.4089 7.45404C22.4775 8.15861 21.8129 10.4297 20.8035 14.3848C20.6112 15.1444 20.3463 16.1787 20.2514 16.4061C19.1396 18.5123 9.22559 37.5507 3.68147 57.8384C-2.90452 81.9412 -0.645901 97.7166 10.3924 104.722C12.9258 106.331 16.4787 106.039 18.7898 104.048L41.5309 84.4921C44.2942 82.1161 47.8221 80.8069 51.4649 80.8069H98.5362C102.177 80.8069 105.707 82.1136 108.47 84.4921L131.211 104.048C132.518 105.172 134.182 105.792 135.901 105.792C137.223 105.792 138.507 105.422 139.609 104.72C150.647 97.7191 152.903 81.9462 146.32 57.8409ZM24.3964 30.8423C24.3964 23.954 29.9855 18.3499 36.8538 18.3499C43.7221 18.3499 49.3112 23.954 49.3112 30.8423C49.3112 37.7306 43.7221 43.3347 36.8538 43.3347C29.9855 43.3347 24.3964 37.7306 24.3964 30.8423ZM74.7632 58.1707C74.7632 60.5317 72.8469 62.4556 70.4908 62.4556H64.7968V68.1646C64.7968 70.5256 62.8804 72.4495 60.5244 72.4495H54.1183C51.7622 72.4495 49.8459 70.5256 49.8459 68.1646V62.4556H44.1518C41.7958 62.4556 39.8794 60.5317 39.8794 58.1707V51.7496C39.8794 49.3885 41.7958 47.4647 44.1518 47.4647H49.8459V41.7557C49.8459 39.3946 51.7622 37.4708 54.1183 37.4708H60.5244C62.8804 37.4708 64.7968 39.3946 64.7968 41.7557V47.4647H70.4908C72.8469 47.4647 74.7632 49.3885 74.7632 51.7496V58.1707ZM111.603 15.8514C114.354 15.8514 116.585 18.0901 116.585 20.8484C116.585 23.6067 114.354 25.8453 111.603 25.8453C108.85 25.8453 106.619 23.6067 106.619 20.8484C106.619 18.0901 108.85 15.8514 111.603 15.8514ZM101.637 25.8453C104.39 25.8453 106.619 28.084 106.619 30.8423C106.619 33.6006 104.388 35.8393 101.637 35.8393C98.8835 35.8393 96.6549 33.6006 96.6549 30.8423C96.6549 28.084 98.8835 25.8453 101.637 25.8453ZM94.1614 68.3195C87.2931 68.3195 81.704 62.7154 81.704 55.8271C81.704 48.9388 87.2931 43.3347 94.1614 43.3347C101.03 43.3347 106.619 48.9388 106.619 55.8271C106.619 62.7154 101.03 68.3195 94.1614 68.3195ZM111.603 45.8332C108.85 45.8332 106.619 43.5945 106.619 40.8362C106.619 38.0779 108.85 35.8393 111.603 35.8393C114.354 35.8393 116.585 38.0779 116.585 40.8362C116.585 43.5945 114.354 45.8332 111.603 45.8332ZM121.57 35.8393C118.816 35.8393 116.588 33.6006 116.588 30.8423C116.588 28.084 118.819 25.8453 121.57 25.8453C124.323 25.8453 126.552 28.084 126.552 30.8423C126.552 33.6006 124.321 35.8393 121.57 35.8393Z" fill="white"/>
<path d="M36.8563 38.3381C40.9849 38.3381 44.3318 34.9823 44.3318 30.8427C44.3318 26.703 40.9849 23.3472 36.8563 23.3472C32.7278 23.3472 29.3809 26.703 29.3809 30.8427C29.3809 34.9823 32.7278 38.3381 36.8563 38.3381Z" fill="white"/>
<path d="M59.8124 42.4683H54.8304V52.4622H44.864V57.4591H54.8304V67.4531H59.8124V57.4591H69.7788V52.4622H59.8124V42.4683Z" fill="white"/>
<path d="M73.3316 14.3825C75.0181 14.6773 76.6046 14.1476 77.7539 12.9983C78.6934 12.0539 79.213 10.7997 79.213 9.46547C79.213 9.14816 79.1831 8.83835 79.1231 8.53853C79.0831 8.33366 79.0656 8.22872 79.0381 4.39355H69.4515C69.4265 8.10629 69.404 8.21873 69.3565 8.4286C69.2066 9.11068 69.2091 9.82776 69.359 10.5498C69.7713 12.4761 71.4028 14.0552 73.3316 14.3825Z" fill="white"/>
<path d="M94.161 63.3228C98.2896 63.3228 101.637 59.967 101.637 55.8274C101.637 51.6878 98.2896 48.332 94.161 48.332C90.0324 48.332 86.6855 51.6878 86.6855 55.8274C86.6855 59.967 90.0324 63.3228 94.161 63.3228Z" fill="white"/>
</g>
<defs>
<clipPath id="clip0_616_8732">
<rect width="150" height="110" fill="white"/>
</clipPath>
</defs>
</svg>
