<svg width="60" height="60" viewBox="0 0 60 60" fill="none" xmlns="http://www.w3.org/2000/svg">
<circle cx="30" cy="30" r="30" fill="url(#paint0_linear_555_6334)" fill-opacity="0.5"/>
<circle cx="30" cy="30" r="28.5" fill="white" fill-opacity="0.15" style="mix-blend-mode:overlay"/>
<circle cx="30" cy="30" r="28.5" stroke="url(#paint1_linear_555_6334)" stroke-width="3"/>
<path fill-rule="evenodd" clip-rule="evenodd" d="M34.8811 27.0122H37.0669H37.0678H39.2533H39.2536H41.44V29.189H39.2536H39.2533H37.0678H37.0669H34.8811V27.0122ZM34.8792 29.1891H32.6925V31.3658H30.5068V33.5426H32.6925H32.6935H34.8792V31.3659V29.1891ZM17.3862 31.3658H15.1995V33.5426H17.3862V31.3658ZM15.1999 33.5427H13.0132V35.7195V37.8963H15.1995V40.073H17.3862V37.8962H15.1999V35.7196V33.5427ZM17.3862 40.073L19.5731 40.073V42.2499H17.3864L17.3862 40.073ZM21.7586 40.073H19.5739V42.2499H21.7606H23.9452V40.073H21.7586ZM26.1335 37.8962H23.9471V40.073H26.1335H26.1338H28.3202V37.8963V35.7195H26.1335V37.8962ZM23.9471 40.073H26.1338V42.2499H23.9471V40.073ZM30.5068 33.5426L28.3204 33.5427L28.3202 35.7195V37.8963H30.5071V35.7196H32.6925V37.8963H34.8792V35.7195H32.6935V33.5426H30.5068ZM37.0678 29.189H34.8811V31.3659H37.0678V29.189ZM34.8811 37.8962H37.0678V40.073H34.8811V37.8962ZM37.0669 40.073H39.2533H41.44V42.2499H39.2536H37.0669V40.073ZM43.6274 27.0122H41.4408V29.189H43.6274V27.0122ZM41.4408 40.073H43.6274V42.2499H41.4408V40.073ZM45.8132 29.1891H43.6266V31.3659H45.8132V29.1891ZM43.6266 37.8962H45.8132V40.073H43.6266V37.8962ZM48.0001 31.3658H45.8135V33.5426H48.0001V31.3658ZM45.8135 33.5426H48.0001V35.7195V37.8963H45.8135V35.7196V33.5426Z" fill="#DE14FF"/>
<path d="M13 23.9833C13.0112 20.7163 14.862 17.8216 17.8703 16.616C20.655 15.4992 23.3166 15.9215 25.6874 17.7161C26.8673 18.6106 27.8905 19.7051 28.9753 20.7219C29.2269 20.9552 29.2046 21.1441 28.9586 21.3886C28.6846 21.6553 28.4106 21.9164 28.1366 22.1775C27.857 22.4387 27.6501 22.4387 27.3649 22.1664C26.5709 21.4108 25.8048 20.6274 24.9717 19.9107C23.2215 18.4106 21.1973 17.8216 18.9775 18.5662C16.8303 19.2829 15.6113 20.9052 15.2758 23.1054C14.9347 25.3167 15.6672 27.1669 17.5069 28.5003C18.6755 29.3504 20.0287 29.5504 21.4434 29.3726C23.0594 29.167 24.3454 28.3392 25.4638 27.2169C27.8514 24.8111 30.2278 22.3942 32.6155 19.9885C33.4822 19.1106 34.3265 18.1994 35.3554 17.5049C36.9993 16.3937 38.8166 15.877 40.7962 16.0937C42.6246 16.2937 44.1567 17.1327 45.4147 18.4495C47.0028 20.1107 47.7465 22.1053 47.6345 24.3888C47.5955 25.1334 47.3773 25.8779 47.193 26.6113C47.081 27.0391 46.7009 27.1057 46.3486 26.8168C46.0744 26.5946 45.8006 26.3779 45.5153 26.1668C45.2414 25.9668 45.1744 25.8223 45.2805 25.5056C46.1529 22.9165 44.6934 19.8551 42.2108 18.7661C40.6731 18.0883 39.1409 18.1439 37.6032 18.7828C36.5129 19.2384 35.6462 19.9885 34.841 20.8163C32.9007 22.8109 30.9715 24.8222 29.0145 26.8057C28.0192 27.8169 27.0183 28.8337 25.9391 29.7504C24.1609 31.2617 22.0584 31.845 19.7267 31.595C16.0642 31.1839 13.6598 28.3892 13.1174 25.3389C13.0391 24.8944 13.0391 24.4388 13 23.9833Z" fill="white"/>
<defs>
<linearGradient id="paint0_linear_555_6334" x1="10" y1="6.5" x2="49" y2="54.5" gradientUnits="userSpaceOnUse">
<stop stop-color="#FE53BB"/>
<stop offset="1" stop-color="#09FBD3"/>
</linearGradient>
<linearGradient id="paint1_linear_555_6334" x1="14" y1="8" x2="55" y2="60" gradientUnits="userSpaceOnUse">
<stop stop-color="#FE53BB"/>
<stop offset="1" stop-color="#09FBD3"/>
</linearGradient>
</defs>
</svg>
